<svg id="Capa_1" enable-background="new 0 0 512 512" height="512" viewBox="0 0 512 512" width="512" xmlns="http://www.w3.org/2000/svg"><g><path d="m205.906 144.974c1.202 17.324 20.996 26.81 35.303 16.968 12.585-8.664 29.765.36 29.765 15.651v62.91h47.129c-8.37-34.178 18.729-67.475 54.776-64.986 31.716 2.198 55.236 32.737 47.316 64.986h47.605c39.834-60.227-.283-147.363-77.907-151.349 8.777-46.351-26.962-89.076-73.799-89.076-16.919 0-32.549 5.624-45.12 15.098v93.893c0 15.28-17.167 24.319-29.767 15.651-15.309-10.532-36.628 1.102-35.301 20.254z"/><path d="m108.529 240.504c15.283 0 24.32 17.171 15.649 29.769-10.483 15.232 1.027 36.617 20.26 35.289 17.364-1.204 26.803-21.013 16.973-35.293-8.667-12.592.365-29.765 15.652-29.765h63.921v-46.145c-32.321 7.94-62.801-15.669-64.996-47.311-2.489-35.895 30.669-63.174 64.996-54.769v-77.102c-53.814-40.556-130.906 5.752-119.097 72.985-78.087 4.149-117.604 91.474-77.425 152.342z"/><path d="m467.298 270.495h-63.869c-15.29 0-24.318-17.175-15.651-29.766 9.837-14.286.373-34.089-16.973-35.292-19.23-1.335-30.747 20.05-20.26 35.289 8.668 12.598-.362 29.769-15.649 29.769h-63.921v46.119c34.229-8.381 67.491 18.786 64.996 54.768-2.196 31.654-32.684 55.244-64.996 47.312v78.13c53.814 40.556 130.906-5.752 119.097-72.985 76.21-4.051 118.571-89.55 77.226-153.344z"/><path d="m306.051 369.307c1.327-19.142-19.991-30.787-35.3-20.251-12.593 8.659-29.768-.358-29.768-15.651v-62.909h-47.155c8.163 33.22-17.14 65.118-51.099 65.118-34.279 0-59.034-32.301-50.993-65.118h-47.27c-40.157 60.861-.717 148.329 77.599 152.351-8.777 46.351 26.962 89.076 73.799 89.076 16.919 0 32.549-5.624 45.12-15.098v-94.895c0-15.278 17.168-24.32 29.764-15.652 14.278 9.827 34.099.389 35.303-16.971z"/></g></svg>